solid FCC (1x1x1)
   facet normal -5.773503e-01 5.773503e-01 5.773503e-01
      outer loop
         vertex 5.000000e+00 4.267772e-01 1.000000e+01
         vertex 9.573223e+00 5.000000e+00 1.000000e+01
         vertex 5.000000e+00 5.000000e+00 5.426777e+00
      endloop
   endfacet
   facet normal 5.773503e-01 -5.773503e-01 5.773503e-01
      outer loop
         vertex 1.000000e+01 4.573223e+00 1.000000e+01
         vertex 5.426777e+00 0.000000e+00 1.000000e+01
         vertex 1.000000e+01 0.000000e+00 5.426777e+00
      endloop
   endfacet
   facet normal 1.000000e+00 0.000000e+00 -0.000000e+00
      outer loop
         vertex 1.000000e+01 4.267772e-01 5.000000e+00
         vertex 1.000000e+01 5.000000e+00 9.573223e+00
         vertex 1.000000e+01 0.000000e+00 5.426777e+00
      endloop
   endfacet
   facet normal 1.000000e+00 0.000000e+00 0.000000e+00
      outer loop
         vertex 1.000000e+01 0.000000e+00 5.426777e+00
         vertex 1.000000e+01 5.000000e+00 9.573223e+00
         vertex 1.000000e+01 4.573223e+00 1.000000e+01
      endloop
   endfacet
   facet normal 1.000000e+00 -0.000000e+00 0.000000e+00
      outer loop
         vertex 1.000000e+01 4.573223e+00 1.000000e+01
         vertex 1.000000e+01 5.000000e+00 9.573223e+00
         vertex 1.000000e+01 5.426777e+00 1.000000e+01
      endloop
   endfacet
   facet normal 1.000000e+00 0.000000e+00 0.000000e+00
      outer loop
         vertex 1.000000e+01 5.426777e+00 1.000000e+01
         vertex 1.000000e+01 5.000000e+00 9.573223e+00
         vertex 1.000000e+01 9.573223e+00 5.000000e+00
      endloop
   endfacet
   facet normal 1.000000e+00 0.000000e+00 0.000000e+00
      outer loop
         vertex 1.000000e+01 5.426777e+00 1.000000e+01
         vertex 1.000000e+01 9.573223e+00 5.000000e+00
         vertex 1.000000e+01 1.000000e+01 5.426777e+00
      endloop
   endfacet
   facet normal 1.000000e+00 0.000000e+00 0.000000e+00
      outer loop
         vertex 1.000000e+01 0.000000e+00 5.426777e+00
         vertex 1.000000e+01 0.000000e+00 4.573223e+00
         vertex 1.000000e+01 4.267772e-01 5.000000e+00
      endloop
   endfacet
   facet normal 1.000000e+00 0.000000e+00 0.000000e+00
      outer loop
         vertex 1.000000e+01 4.267772e-01 5.000000e+00
         vertex 1.000000e+01 0.000000e+00 4.573223e+00
         vertex 1.000000e+01 4.573223e+00 0.000000e+00
      endloop
   endfacet
   facet normal 1.000000e+00 0.000000e+00 0.000000e+00
      outer loop
         vertex 1.000000e+01 4.267772e-01 5.000000e+00
         vertex 1.000000e+01 4.573223e+00 0.000000e+00
         vertex 1.000000e+01 5.000000e+00 4.267772e-01
      endloop
   endfacet
   facet normal 1.000000e+00 0.000000e+00 0.000000e+00
      outer loop
         vertex 1.000000e+01 5.000000e+00 4.267772e-01
         vertex 1.000000e+01 4.573223e+00 0.000000e+00
         vertex 1.000000e+01 5.426777e+00 0.000000e+00
      endloop
   endfacet
   facet normal 1.000000e+00 -0.000000e+00 0.000000e+00
      outer loop
         vertex 1.000000e+01 5.000000e+00 4.267772e-01
         vertex 1.000000e+01 5.426777e+00 0.000000e+00
         vertex 1.000000e+01 9.573223e+00 5.000000e+00
      endloop
   endfacet
   facet normal 1.000000e+00 0.000000e+00 0.000000e+00
      outer loop
         vertex 1.000000e+01 9.573223e+00 5.000000e+00
         vertex 1.000000e+01 5.426777e+00 0.000000e+00
         vertex 1.000000e+01 1.000000e+01 4.573223e+00
      endloop
   endfacet
   facet normal 1.000000e+00 -0.000000e+00 0.000000e+00
      outer loop
         vertex 1.000000e+01 9.573223e+00 5.000000e+00
         vertex 1.000000e+01 1.000000e+01 4.573223e+00
         vertex 1.000000e+01 1.000000e+01 5.426777e+00
      endloop
   endfacet
   facet normal 0.000000e+00 -1.000000e+00 0.000000e+00
      outer loop
         vertex 5.000000e+00 0.000000e+00 4.267772e-01
         vertex 4.267772e-01 0.000000e+00 5.000000e+00
         vertex 0.000000e+00 0.000000e+00 4.573223e+00
      endloop
   endfacet
   facet normal 0.000000e+00 -1.000000e+00 0.000000e+00
      outer loop
         vertex 5.000000e+00 0.000000e+00 9.573223e+00
         vertex 9.573223e+00 0.000000e+00 5.000000e+00
         vertex 1.000000e+01 0.000000e+00 5.426777e+00
      endloop
   endfacet
   facet normal 0.000000e+00 -1.000000e+00 0.000000e+00
      outer loop
         vertex 1.000000e+01 0.000000e+00 5.426777e+00
         vertex 5.426777e+00 0.000000e+00 1.000000e+01
         vertex 5.000000e+00 0.000000e+00 9.573223e+00
      endloop
   endfacet
   facet normal 0.000000e+00 -1.000000e+00 0.000000e+00
      outer loop
         vertex 5.000000e+00 0.000000e+00 9.573223e+00
         vertex 5.426777e+00 0.000000e+00 1.000000e+01
         vertex 4.573223e+00 0.000000e+00 1.000000e+01
      endloop
   endfacet
   facet normal -0.000000e+00 -1.000000e+00 0.000000e+00
      outer loop
         vertex 5.000000e+00 0.000000e+00 9.573223e+00
         vertex 4.573223e+00 0.000000e+00 1.000000e+01
         vertex 4.267772e-01 0.000000e+00 5.000000e+00
      endloop
   endfacet
   facet normal 0.000000e+00 -1.000000e+00 0.000000e+00
      outer loop
         vertex 4.267772e-01 0.000000e+00 5.000000e+00
         vertex 4.573223e+00 0.000000e+00 1.000000e+01
         vertex 0.000000e+00 0.000000e+00 5.426777e+00
      endloop
   endfacet
   facet normal -0.000000e+00 -1.000000e+00 0.000000e+00
      outer loop
         vertex 4.267772e-01 0.000000e+00 5.000000e+00
         vertex 0.000000e+00 0.000000e+00 5.426777e+00
         vertex 0.000000e+00 0.000000e+00 4.573223e+00
      endloop
   endfacet
   facet normal 0.000000e+00 -1.000000e+00 0.000000e+00
      outer loop
         vertex 0.000000e+00 0.000000e+00 4.573223e+00
         vertex 4.573223e+00 0.000000e+00 0.000000e+00
         vertex 5.000000e+00 0.000000e+00 4.267772e-01
      endloop
   endfacet
   facet normal 0.000000e+00 -1.000000e+00 -0.000000e+00
      outer loop
         vertex 5.000000e+00 0.000000e+00 4.267772e-01
         vertex 4.573223e+00 0.000000e+00 0.000000e+00
         vertex 5.426777e+00 0.000000e+00 0.000000e+00
      endloop
   endfacet
   facet normal 0.000000e+00 -1.000000e+00 0.000000e+00
      outer loop
         vertex 5.000000e+00 0.000000e+00 4.267772e-01
         vertex 5.426777e+00 0.000000e+00 0.000000e+00
         vertex 9.573223e+00 0.000000e+00 5.000000e+00
      endloop
   endfacet
   facet normal 0.000000e+00 -1.000000e+00 -0.000000e+00
      outer loop
         vertex 9.573223e+00 0.000000e+00 5.000000e+00
         vertex 5.426777e+00 0.000000e+00 0.000000e+00
         vertex 1.000000e+01 0.000000e+00 4.573223e+00
      endloop
   endfacet
   facet normal 0.000000e+00 -1.000000e+00 0.000000e+00
      outer loop
         vertex 9.573223e+00 0.000000e+00 5.000000e+00
         vertex 1.000000e+01 0.000000e+00 4.573223e+00
         vertex 1.000000e+01 0.000000e+00 5.426777e+00
      endloop
   endfacet
   facet normal -5.773503e-01 -5.773503e-01 -5.773503e-01
      outer loop
         vertex 5.000000e+00 4.573223e+00 5.000000e+00
         vertex 9.573223e+00 0.000000e+00 5.000000e+00
         vertex 5.000000e+00 0.000000e+00 9.573223e+00
      endloop
   endfacet
   facet normal 5.773503e-01 5.773503e-01 -5.773503e-01
      outer loop
         vertex 1.000000e+01 4.267772e-01 5.000000e+00
         vertex 5.426777e+00 5.000000e+00 5.000000e+00
         vertex 1.000000e+01 5.000000e+00 9.573223e+00
      endloop
   endfacet
   facet normal 0.000000e+00 0.000000e+00 1.000000e+00
      outer loop
         vertex 5.426777e+00 1.000000e+01 1.000000e+01
         vertex 5.000000e+00 9.573223e+00 1.000000e+01
         vertex 1.000000e+01 5.426777e+00 1.000000e+01
      endloop
   endfacet
   facet normal 0.000000e+00 0.000000e+00 1.000000e+00
      outer loop
         vertex 1.000000e+01 5.426777e+00 1.000000e+01
         vertex 5.000000e+00 9.573223e+00 1.000000e+01
         vertex 9.573223e+00 5.000000e+00 1.000000e+01
      endloop
   endfacet
   facet normal 0.000000e+00 0.000000e+00 1.000000e+00
      outer loop
         vertex 1.000000e+01 5.426777e+00 1.000000e+01
         vertex 9.573223e+00 5.000000e+00 1.000000e+01
         vertex 1.000000e+01 4.573223e+00 1.000000e+01
      endloop
   endfacet
   facet normal 0.000000e+00 0.000000e+00 1.000000e+00
      outer loop
         vertex 1.000000e+01 4.573223e+00 1.000000e+01
         vertex 9.573223e+00 5.000000e+00 1.000000e+01
         vertex 5.000000e+00 4.267772e-01 1.000000e+01
      endloop
   endfacet
   facet normal 0.000000e+00 0.000000e+00 1.000000e+00
      outer loop
         vertex 1.000000e+01 4.573223e+00 1.000000e+01
         vertex 5.000000e+00 4.267772e-01 1.000000e+01
         vertex 5.426777e+00 0.000000e+00 1.000000e+01
      endloop
   endfacet
   facet normal 0.000000e+00 0.000000e+00 1.000000e+00
      outer loop
         vertex 5.426777e+00 1.000000e+01 1.000000e+01
         vertex 4.573223e+00 1.000000e+01 1.000000e+01
         vertex 5.000000e+00 9.573223e+00 1.000000e+01
      endloop
   endfacet
   facet normal 0.000000e+00 0.000000e+00 1.000000e+00
      outer loop
         vertex 5.000000e+00 9.573223e+00 1.000000e+01
         vertex 4.573223e+00 1.000000e+01 1.000000e+01
         vertex 0.000000e+00 5.426777e+00 1.000000e+01
      endloop
   endfacet
   facet normal 0.000000e+00 0.000000e+00 1.000000e+00
      outer loop
         vertex 5.000000e+00 9.573223e+00 1.000000e+01
         vertex 0.000000e+00 5.426777e+00 1.000000e+01
         vertex 4.267772e-01 5.000000e+00 1.000000e+01
      endloop
   endfacet
   facet normal 0.000000e+00 0.000000e+00 1.000000e+00
      outer loop
         vertex 4.267772e-01 5.000000e+00 1.000000e+01
         vertex 0.000000e+00 5.426777e+00 1.000000e+01
         vertex 0.000000e+00 4.573223e+00 1.000000e+01
      endloop
   endfacet
   facet normal 0.000000e+00 0.000000e+00 1.000000e+00
      outer loop
         vertex 4.267772e-01 5.000000e+00 1.000000e+01
         vertex 0.000000e+00 4.573223e+00 1.000000e+01
         vertex 5.000000e+00 4.267772e-01 1.000000e+01
      endloop
   endfacet
   facet normal 0.000000e+00 0.000000e+00 1.000000e+00
      outer loop
         vertex 5.000000e+00 4.267772e-01 1.000000e+01
         vertex 0.000000e+00 4.573223e+00 1.000000e+01
         vertex 4.573223e+00 0.000000e+00 1.000000e+01
      endloop
   endfacet
   facet normal 0.000000e+00 0.000000e+00 1.000000e+00
      outer loop
         vertex 5.000000e+00 4.267772e-01 1.000000e+01
         vertex 4.573223e+00 0.000000e+00 1.000000e+01
         vertex 5.426777e+00 0.000000e+00 1.000000e+01
      endloop
   endfacet
   facet normal -5.773503e-01 5.773503e-01 -5.773503e-01
      outer loop
         vertex 5.000000e+00 5.000000e+00 4.573223e+00
         vertex 9.573223e+00 5.000000e+00 0.000000e+00
         vertex 5.000000e+00 4.267772e-01 0.000000e+00
      endloop
   endfacet
   facet normal 5.773503e-01 -5.773503e-01 -5.773503e-01
      outer loop
         vertex 1.000000e+01 0.000000e+00 4.573223e+00
         vertex 5.426777e+00 0.000000e+00 0.000000e+00
         vertex 1.000000e+01 4.573223e+00 0.000000e+00
      endloop
   endfacet
   facet normal -5.773503e-01 -5.773503e-01 5.773503e-01
      outer loop
         vertex 5.000000e+00 0.000000e+00 4.267772e-01
         vertex 9.573223e+00 0.000000e+00 5.000000e+00
         vertex 5.000000e+00 4.573223e+00 5.000000e+00
      endloop
   endfacet
   facet normal 5.773503e-01 5.773503e-01 5.773503e-01
      outer loop
         vertex 1.000000e+01 5.000000e+00 4.267772e-01
         vertex 5.426777e+00 5.000000e+00 5.000000e+00
         vertex 1.000000e+01 4.267772e-01 5.000000e+00
      endloop
   endfacet
   facet normal 0.000000e+00 -0.000000e+00 -1.000000e+00
      outer loop
         vertex 4.573223e+00 1.000000e+01 0.000000e+00
         vertex 5.000000e+00 9.573223e+00 0.000000e+00
         vertex 0.000000e+00 5.426777e+00 0.000000e+00
      endloop
   endfacet
   facet normal 0.000000e+00 0.000000e+00 -1.000000e+00
      outer loop
         vertex 0.000000e+00 5.426777e+00 0.000000e+00
         vertex 5.000000e+00 9.573223e+00 0.000000e+00
         vertex 4.267772e-01 5.000000e+00 0.000000e+00
      endloop
   endfacet
   facet normal 0.000000e+00 0.000000e+00 -1.000000e+00
      outer loop
         vertex 0.000000e+00 5.426777e+00 0.000000e+00
         vertex 4.267772e-01 5.000000e+00 0.000000e+00
         vertex 0.000000e+00 4.573223e+00 0.000000e+00
      endloop
   endfacet
   facet normal 0.000000e+00 0.000000e+00 -1.000000e+00
      outer loop
         vertex 0.000000e+00 4.573223e+00 0.000000e+00
         vertex 4.267772e-01 5.000000e+00 0.000000e+00
         vertex 5.000000e+00 4.267772e-01 0.000000e+00
      endloop
   endfacet
   facet normal 0.000000e+00 0.000000e+00 -1.000000e+00
      outer loop
         vertex 0.000000e+00 4.573223e+00 0.000000e+00
         vertex 5.000000e+00 4.267772e-01 0.000000e+00
         vertex 4.573223e+00 0.000000e+00 0.000000e+00
      endloop
   endfacet
   facet normal 0.000000e+00 0.000000e+00 -1.000000e+00
      outer loop
         vertex 4.573223e+00 1.000000e+01 0.000000e+00
         vertex 5.426777e+00 1.000000e+01 0.000000e+00
         vertex 5.000000e+00 9.573223e+00 0.000000e+00
      endloop
   endfacet
   facet normal 0.000000e+00 0.000000e+00 -1.000000e+00
      outer loop
         vertex 5.000000e+00 9.573223e+00 0.000000e+00
         vertex 5.426777e+00 1.000000e+01 0.000000e+00
         vertex 1.000000e+01 5.426777e+00 0.000000e+00
      endloop
   endfacet
   facet normal 0.000000e+00 0.000000e+00 -1.000000e+00
      outer loop
         vertex 5.000000e+00 9.573223e+00 0.000000e+00
         vertex 1.000000e+01 5.426777e+00 0.000000e+00
         vertex 9.573223e+00 5.000000e+00 0.000000e+00
      endloop
   endfacet
   facet normal 0.000000e+00 0.000000e+00 -1.000000e+00
      outer loop
         vertex 9.573223e+00 5.000000e+00 0.000000e+00
         vertex 1.000000e+01 5.426777e+00 0.000000e+00
         vertex 1.000000e+01 4.573223e+00 0.000000e+00
      endloop
   endfacet
   facet normal 0.000000e+00 -0.000000e+00 -1.000000e+00
      outer loop
         vertex 9.573223e+00 5.000000e+00 0.000000e+00
         vertex 1.000000e+01 4.573223e+00 0.000000e+00
         vertex 5.000000e+00 4.267772e-01 0.000000e+00
      endloop
   endfacet
   facet normal 0.000000e+00 0.000000e+00 -1.000000e+00
      outer loop
         vertex 5.000000e+00 4.267772e-01 0.000000e+00
         vertex 1.000000e+01 4.573223e+00 0.000000e+00
         vertex 5.426777e+00 0.000000e+00 0.000000e+00
      endloop
   endfacet
   facet normal 0.000000e+00 -0.000000e+00 -1.000000e+00
      outer loop
         vertex 5.000000e+00 4.267772e-01 0.000000e+00
         vertex 5.426777e+00 0.000000e+00 0.000000e+00
         vertex 4.573223e+00 0.000000e+00 0.000000e+00
      endloop
   endfacet
   facet normal 5.773503e-01 5.773503e-01 5.773503e-01
      outer loop
         vertex 5.000000e+00 5.000000e+00 5.426777e+00
         vertex 4.267772e-01 5.000000e+00 1.000000e+01
         vertex 5.000000e+00 4.267772e-01 1.000000e+01
      endloop
   endfacet
   facet normal -5.773503e-01 -5.773503e-01 5.773503e-01
      outer loop
         vertex 0.000000e+00 0.000000e+00 5.426777e+00
         vertex 4.573223e+00 0.000000e+00 1.000000e+01
         vertex 0.000000e+00 4.573223e+00 1.000000e+01
      endloop
   endfacet
   facet normal -1.000000e+00 0.000000e+00 -0.000000e+00
      outer loop
         vertex 0.000000e+00 4.267772e-01 5.000000e+00
         vertex 0.000000e+00 5.000000e+00 4.267772e-01
         vertex 0.000000e+00 0.000000e+00 4.573223e+00
      endloop
   endfacet
   facet normal -1.000000e+00 0.000000e+00 0.000000e+00
      outer loop
         vertex 0.000000e+00 0.000000e+00 4.573223e+00
         vertex 0.000000e+00 5.000000e+00 4.267772e-01
         vertex 0.000000e+00 4.573223e+00 0.000000e+00
      endloop
   endfacet
   facet normal -1.000000e+00 0.000000e+00 0.000000e+00
      outer loop
         vertex 0.000000e+00 4.573223e+00 0.000000e+00
         vertex 0.000000e+00 5.000000e+00 4.267772e-01
         vertex 0.000000e+00 5.426777e+00 0.000000e+00
      endloop
   endfacet
   facet normal -1.000000e+00 0.000000e+00 0.000000e+00
      outer loop
         vertex 0.000000e+00 5.426777e+00 0.000000e+00
         vertex 0.000000e+00 5.000000e+00 4.267772e-01
         vertex 0.000000e+00 9.573223e+00 5.000000e+00
      endloop
   endfacet
   facet normal -1.000000e+00 0.000000e+00 0.000000e+00
      outer loop
         vertex 0.000000e+00 5.426777e+00 0.000000e+00
         vertex 0.000000e+00 9.573223e+00 5.000000e+00
         vertex 0.000000e+00 1.000000e+01 4.573223e+00
      endloop
   endfacet
   facet normal -1.000000e+00 0.000000e+00 0.000000e+00
      outer loop
         vertex 0.000000e+00 0.000000e+00 4.573223e+00
         vertex 0.000000e+00 0.000000e+00 5.426777e+00
         vertex 0.000000e+00 4.267772e-01 5.000000e+00
      endloop
   endfacet
   facet normal -1.000000e+00 0.000000e+00 0.000000e+00
      outer loop
         vertex 0.000000e+00 4.267772e-01 5.000000e+00
         vertex 0.000000e+00 0.000000e+00 5.426777e+00
         vertex 0.000000e+00 4.573223e+00 1.000000e+01
      endloop
   endfacet
   facet normal -1.000000e+00 0.000000e+00 0.000000e+00
      outer loop
         vertex 0.000000e+00 4.267772e-01 5.000000e+00
         vertex 0.000000e+00 4.573223e+00 1.000000e+01
         vertex 0.000000e+00 5.000000e+00 9.573223e+00
      endloop
   endfacet
   facet normal -1.000000e+00 0.000000e+00 0.000000e+00
      outer loop
         vertex 0.000000e+00 5.000000e+00 9.573223e+00
         vertex 0.000000e+00 4.573223e+00 1.000000e+01
         vertex 0.000000e+00 5.426777e+00 1.000000e+01
      endloop
   endfacet
   facet normal -1.000000e+00 0.000000e+00 0.000000e+00
      outer loop
         vertex 0.000000e+00 5.000000e+00 9.573223e+00
         vertex 0.000000e+00 5.426777e+00 1.000000e+01
         vertex 0.000000e+00 9.573223e+00 5.000000e+00
      endloop
   endfacet
   facet normal -1.000000e+00 0.000000e+00 0.000000e+00
      outer loop
         vertex 0.000000e+00 9.573223e+00 5.000000e+00
         vertex 0.000000e+00 5.426777e+00 1.000000e+01
         vertex 0.000000e+00 1.000000e+01 5.426777e+00
      endloop
   endfacet
   facet normal -1.000000e+00 0.000000e+00 0.000000e+00
      outer loop
         vertex 0.000000e+00 9.573223e+00 5.000000e+00
         vertex 0.000000e+00 1.000000e+01 5.426777e+00
         vertex 0.000000e+00 1.000000e+01 4.573223e+00
      endloop
   endfacet
   facet normal 5.773503e-01 -5.773503e-01 -5.773503e-01
      outer loop
         vertex 5.000000e+00 0.000000e+00 9.573223e+00
         vertex 4.267772e-01 0.000000e+00 5.000000e+00
         vertex 5.000000e+00 4.573223e+00 5.000000e+00
      endloop
   endfacet
   facet normal -5.773503e-01 5.773503e-01 -5.773503e-01
      outer loop
         vertex 0.000000e+00 5.000000e+00 9.573223e+00
         vertex 4.573223e+00 5.000000e+00 5.000000e+00
         vertex 0.000000e+00 4.267772e-01 5.000000e+00
      endloop
   endfacet
   facet normal 5.773503e-01 5.773503e-01 -5.773503e-01
      outer loop
         vertex 5.000000e+00 4.267772e-01 0.000000e+00
         vertex 4.267772e-01 5.000000e+00 0.000000e+00
         vertex 5.000000e+00 5.000000e+00 4.573223e+00
      endloop
   endfacet
   facet normal -5.773503e-01 -5.773503e-01 -5.773503e-01
      outer loop
         vertex 0.000000e+00 4.573223e+00 0.000000e+00
         vertex 4.573223e+00 0.000000e+00 0.000000e+00
         vertex 0.000000e+00 0.000000e+00 4.573223e+00
      endloop
   endfacet
   facet normal 5.773503e-01 -5.773503e-01 5.773503e-01
      outer loop
         vertex 5.000000e+00 4.573223e+00 5.000000e+00
         vertex 4.267772e-01 0.000000e+00 5.000000e+00
         vertex 5.000000e+00 0.000000e+00 4.267772e-01
      endloop
   endfacet
   facet normal -5.773503e-01 5.773503e-01 5.773503e-01
      outer loop
         vertex 0.000000e+00 4.267772e-01 5.000000e+00
         vertex 4.573223e+00 5.000000e+00 5.000000e+00
         vertex 0.000000e+00 5.000000e+00 4.267772e-01
      endloop
   endfacet
   facet normal -5.773503e-01 -5.773503e-01 5.773503e-01
      outer loop
         vertex 5.000000e+00 5.000000e+00 5.426777e+00
         vertex 9.573223e+00 5.000000e+00 1.000000e+01
         vertex 5.000000e+00 9.573223e+00 1.000000e+01
      endloop
   endfacet
   facet normal 5.773503e-01 5.773503e-01 5.773503e-01
      outer loop
         vertex 1.000000e+01 1.000000e+01 5.426777e+00
         vertex 5.426777e+00 1.000000e+01 1.000000e+01
         vertex 1.000000e+01 5.426777e+00 1.000000e+01
      endloop
   endfacet
   facet normal 0.000000e+00 1.000000e+00 0.000000e+00
      outer loop
         vertex 4.573223e+00 1.000000e+01 1.000000e+01
         vertex 5.000000e+00 1.000000e+01 9.573223e+00
         vertex 4.267772e-01 1.000000e+01 5.000000e+00
      endloop
   endfacet
   facet normal 0.000000e+00 1.000000e+00 0.000000e+00
      outer loop
         vertex 5.000000e+00 1.000000e+01 4.267772e-01
         vertex 0.000000e+00 1.000000e+01 4.573223e+00
         vertex 4.267772e-01 1.000000e+01 5.000000e+00
      endloop
   endfacet
   facet normal 0.000000e+00 1.000000e+00 0.000000e+00
      outer loop
         vertex 4.267772e-01 1.000000e+01 5.000000e+00
         vertex 0.000000e+00 1.000000e+01 4.573223e+00
         vertex 0.000000e+00 1.000000e+01 5.426777e+00
      endloop
   endfacet
   facet normal 0.000000e+00 1.000000e+00 -0.000000e+00
      outer loop
         vertex 4.267772e-01 1.000000e+01 5.000000e+00
         vertex 0.000000e+00 1.000000e+01 5.426777e+00
         vertex 4.573223e+00 1.000000e+01 1.000000e+01
      endloop
   endfacet
   facet normal 0.000000e+00 1.000000e+00 0.000000e+00
      outer loop
         vertex 9.573223e+00 1.000000e+01 5.000000e+00
         vertex 5.426777e+00 1.000000e+01 0.000000e+00
         vertex 5.000000e+00 1.000000e+01 4.267772e-01
      endloop
   endfacet
   facet normal 0.000000e+00 1.000000e+00 0.000000e+00
      outer loop
         vertex 5.000000e+00 1.000000e+01 4.267772e-01
         vertex 5.426777e+00 1.000000e+01 0.000000e+00
         vertex 4.573223e+00 1.000000e+01 0.000000e+00
      endloop
   endfacet
   facet normal 0.000000e+00 1.000000e+00 0.000000e+00
      outer loop
         vertex 5.000000e+00 1.000000e+01 4.267772e-01
         vertex 4.573223e+00 1.000000e+01 0.000000e+00
         vertex 0.000000e+00 1.000000e+01 4.573223e+00
      endloop
   endfacet
   facet normal -0.000000e+00 1.000000e+00 0.000000e+00
      outer loop
         vertex 4.573223e+00 1.000000e+01 1.000000e+01
         vertex 5.426777e+00 1.000000e+01 1.000000e+01
         vertex 5.000000e+00 1.000000e+01 9.573223e+00
      endloop
   endfacet
   facet normal -0.000000e+00 1.000000e+00 0.000000e+00
      outer loop
         vertex 5.000000e+00 1.000000e+01 9.573223e+00
         vertex 5.426777e+00 1.000000e+01 1.000000e+01
         vertex 1.000000e+01 1.000000e+01 5.426777e+00
      endloop
   endfacet
   facet normal 0.000000e+00 1.000000e+00 0.000000e+00
      outer loop
         vertex 5.000000e+00 1.000000e+01 9.573223e+00
         vertex 1.000000e+01 1.000000e+01 5.426777e+00
         vertex 9.573223e+00 1.000000e+01 5.000000e+00
      endloop
   endfacet
   facet normal -0.000000e+00 1.000000e+00 0.000000e+00
      outer loop
         vertex 9.573223e+00 1.000000e+01 5.000000e+00
         vertex 1.000000e+01 1.000000e+01 5.426777e+00
         vertex 1.000000e+01 1.000000e+01 4.573223e+00
      endloop
   endfacet
   facet normal 0.000000e+00 1.000000e+00 0.000000e+00
      outer loop
         vertex 9.573223e+00 1.000000e+01 5.000000e+00
         vertex 1.000000e+01 1.000000e+01 4.573223e+00
         vertex 5.426777e+00 1.000000e+01 0.000000e+00
      endloop
   endfacet
   facet normal -5.773503e-01 5.773503e-01 -5.773503e-01
      outer loop
         vertex 5.000000e+00 1.000000e+01 9.573223e+00
         vertex 9.573223e+00 1.000000e+01 5.000000e+00
         vertex 5.000000e+00 5.426777e+00 5.000000e+00
      endloop
   endfacet
   facet normal 5.773503e-01 -5.773503e-01 -5.773503e-01
      outer loop
         vertex 1.000000e+01 5.000000e+00 9.573223e+00
         vertex 5.426777e+00 5.000000e+00 5.000000e+00
         vertex 1.000000e+01 9.573223e+00 5.000000e+00
      endloop
   endfacet
   facet normal -5.773503e-01 -5.773503e-01 -5.773503e-01
      outer loop
         vertex 5.000000e+00 9.573223e+00 0.000000e+00
         vertex 9.573223e+00 5.000000e+00 0.000000e+00
         vertex 5.000000e+00 5.000000e+00 4.573223e+00
      endloop
   endfacet
   facet normal 5.773503e-01 5.773503e-01 -5.773503e-01
      outer loop
         vertex 1.000000e+01 5.426777e+00 0.000000e+00
         vertex 5.426777e+00 1.000000e+01 0.000000e+00
         vertex 1.000000e+01 1.000000e+01 4.573223e+00
      endloop
   endfacet
   facet normal -5.773503e-01 5.773503e-01 5.773503e-01
      outer loop
         vertex 5.000000e+00 5.426777e+00 5.000000e+00
         vertex 9.573223e+00 1.000000e+01 5.000000e+00
         vertex 5.000000e+00 1.000000e+01 4.267772e-01
      endloop
   endfacet
   facet normal 5.773503e-01 -5.773503e-01 5.773503e-01
      outer loop
         vertex 1.000000e+01 9.573223e+00 5.000000e+00
         vertex 5.426777e+00 5.000000e+00 5.000000e+00
         vertex 1.000000e+01 5.000000e+00 4.267772e-01
      endloop
   endfacet
   facet normal 5.773503e-01 -5.773503e-01 5.773503e-01
      outer loop
         vertex 5.000000e+00 9.573223e+00 1.000000e+01
         vertex 4.267772e-01 5.000000e+00 1.000000e+01
         vertex 5.000000e+00 5.000000e+00 5.426777e+00
      endloop
   endfacet
   facet normal -5.773503e-01 5.773503e-01 5.773503e-01
      outer loop
         vertex 0.000000e+00 5.426777e+00 1.000000e+01
         vertex 4.573223e+00 1.000000e+01 1.000000e+01
         vertex 0.000000e+00 1.000000e+01 5.426777e+00
      endloop
   endfacet
   facet normal 5.773503e-01 5.773503e-01 -5.773503e-01
      outer loop
         vertex 5.000000e+00 5.426777e+00 5.000000e+00
         vertex 4.267772e-01 1.000000e+01 5.000000e+00
         vertex 5.000000e+00 1.000000e+01 9.573223e+00
      endloop
   endfacet
   facet normal -5.773503e-01 -5.773503e-01 -5.773503e-01
      outer loop
         vertex 0.000000e+00 9.573223e+00 5.000000e+00
         vertex 4.573223e+00 5.000000e+00 5.000000e+00
         vertex 0.000000e+00 5.000000e+00 9.573223e+00
      endloop
   endfacet
   facet normal 5.773503e-01 -5.773503e-01 -5.773503e-01
      outer loop
         vertex 5.000000e+00 5.000000e+00 4.573223e+00
         vertex 4.267772e-01 5.000000e+00 0.000000e+00
         vertex 5.000000e+00 9.573223e+00 0.000000e+00
      endloop
   endfacet
   facet normal -5.773503e-01 5.773503e-01 -5.773503e-01
      outer loop
         vertex 0.000000e+00 1.000000e+01 4.573223e+00
         vertex 4.573223e+00 1.000000e+01 0.000000e+00
         vertex 0.000000e+00 5.426777e+00 0.000000e+00
      endloop
   endfacet
   facet normal 5.773503e-01 5.773503e-01 5.773503e-01
      outer loop
         vertex 5.000000e+00 1.000000e+01 4.267772e-01
         vertex 4.267772e-01 1.000000e+01 5.000000e+00
         vertex 5.000000e+00 5.426777e+00 5.000000e+00
      endloop
   endfacet
   facet normal -5.773503e-01 -5.773503e-01 5.773503e-01
      outer loop
         vertex 0.000000e+00 5.000000e+00 4.267772e-01
         vertex 4.573223e+00 5.000000e+00 5.000000e+00
         vertex 0.000000e+00 9.573223e+00 5.000000e+00
      endloop
   endfacet
   facet normal 5.773503e-01 -5.773503e-01 -5.773503e-01
      outer loop
         vertex 5.426777e+00 4.573223e+00 5.426777e+00
         vertex 9.573223e+00 4.573223e+00 9.573223e+00
         vertex 5.426777e+00 4.267772e-01 9.573223e+00
      endloop
   endfacet
   facet normal 5.773503e-01 5.773503e-01 5.773503e-01
      outer loop
         vertex 5.426777e+00 4.267772e-01 9.573223e+00
         vertex 9.573223e+00 4.267772e-01 5.426777e+00
         vertex 5.426777e+00 4.573223e+00 5.426777e+00
      endloop
   endfacet
   facet normal -5.773503e-01 5.773503e-01 -5.773503e-01
      outer loop
         vertex 9.573223e+00 4.573223e+00 9.573223e+00
         vertex 9.573223e+00 4.267772e-01 5.426777e+00
         vertex 5.426777e+00 4.267772e-01 9.573223e+00
      endloop
   endfacet
   facet normal -5.773503e-01 -5.773503e-01 5.773503e-01
      outer loop
         vertex 5.426777e+00 4.573223e+00 5.426777e+00
         vertex 9.573223e+00 4.267772e-01 5.426777e+00
         vertex 9.573223e+00 4.573223e+00 9.573223e+00
      endloop
   endfacet
   facet normal 5.773503e-01 -5.773503e-01 5.773503e-01
      outer loop
         vertex 5.426777e+00 4.267772e-01 4.267772e-01
         vertex 9.573223e+00 4.573223e+00 4.267772e-01
         vertex 5.426777e+00 4.573223e+00 4.573223e+00
      endloop
   endfacet
   facet normal 5.773503e-01 5.773503e-01 -5.773503e-01
      outer loop
         vertex 5.426777e+00 4.573223e+00 4.573223e+00
         vertex 9.573223e+00 4.267772e-01 4.573223e+00
         vertex 5.426777e+00 4.267772e-01 4.267772e-01
      endloop
   endfacet
   facet normal -5.773503e-01 5.773503e-01 5.773503e-01
      outer loop
         vertex 5.426777e+00 4.267772e-01 4.267772e-01
         vertex 9.573223e+00 4.267772e-01 4.573223e+00
         vertex 9.573223e+00 4.573223e+00 4.267772e-01
      endloop
   endfacet
   facet normal -5.773503e-01 -5.773503e-01 -5.773503e-01
      outer loop
         vertex 9.573223e+00 4.573223e+00 4.267772e-01
         vertex 9.573223e+00 4.267772e-01 4.573223e+00
         vertex 5.426777e+00 4.573223e+00 4.573223e+00
      endloop
   endfacet
   facet normal -5.773503e-01 -5.773503e-01 -5.773503e-01
      outer loop
         vertex 4.573223e+00 4.267772e-01 9.573223e+00
         vertex 4.267772e-01 4.573223e+00 9.573223e+00
         vertex 4.573223e+00 4.573223e+00 5.426777e+00
      endloop
   endfacet
   facet normal -5.773503e-01 5.773503e-01 5.773503e-01
      outer loop
         vertex 4.573223e+00 4.573223e+00 5.426777e+00
         vertex 4.267772e-01 4.267772e-01 5.426777e+00
         vertex 4.573223e+00 4.267772e-01 9.573223e+00
      endloop
   endfacet
   facet normal 5.773503e-01 5.773503e-01 -5.773503e-01
      outer loop
         vertex 4.573223e+00 4.267772e-01 9.573223e+00
         vertex 4.267772e-01 4.267772e-01 5.426777e+00
         vertex 4.267772e-01 4.573223e+00 9.573223e+00
      endloop
   endfacet
   facet normal 5.773503e-01 -5.773503e-01 5.773503e-01
      outer loop
         vertex 4.267772e-01 4.573223e+00 9.573223e+00
         vertex 4.267772e-01 4.267772e-01 5.426777e+00
         vertex 4.573223e+00 4.573223e+00 5.426777e+00
      endloop
   endfacet
   facet normal -5.773503e-01 -5.773503e-01 5.773503e-01
      outer loop
         vertex 4.573223e+00 4.573223e+00 4.573223e+00
         vertex 4.267772e-01 4.573223e+00 4.267772e-01
         vertex 4.573223e+00 4.267772e-01 4.267772e-01
      endloop
   endfacet
   facet normal -5.773503e-01 5.773503e-01 -5.773503e-01
      outer loop
         vertex 4.573223e+00 4.267772e-01 4.267772e-01
         vertex 4.267772e-01 4.267772e-01 4.573223e+00
         vertex 4.573223e+00 4.573223e+00 4.573223e+00
      endloop
   endfacet
   facet normal 5.773503e-01 5.773503e-01 5.773503e-01
      outer loop
         vertex 4.267772e-01 4.573223e+00 4.267772e-01
         vertex 4.267772e-01 4.267772e-01 4.573223e+00
         vertex 4.573223e+00 4.267772e-01 4.267772e-01
      endloop
   endfacet
   facet normal 5.773503e-01 -5.773503e-01 -5.773503e-01
      outer loop
         vertex 4.573223e+00 4.573223e+00 4.573223e+00
         vertex 4.267772e-01 4.267772e-01 4.573223e+00
         vertex 4.267772e-01 4.573223e+00 4.267772e-01
      endloop
   endfacet
   facet normal 5.773503e-01 5.773503e-01 -5.773503e-01
      outer loop
         vertex 5.426777e+00 9.573223e+00 9.573223e+00
         vertex 9.573223e+00 5.426777e+00 9.573223e+00
         vertex 5.426777e+00 5.426777e+00 5.426777e+00
      endloop
   endfacet
   facet normal 5.773503e-01 -5.773503e-01 5.773503e-01
      outer loop
         vertex 5.426777e+00 5.426777e+00 5.426777e+00
         vertex 9.573223e+00 9.573223e+00 5.426777e+00
         vertex 5.426777e+00 9.573223e+00 9.573223e+00
      endloop
   endfacet
   facet normal -5.773503e-01 -5.773503e-01 -5.773503e-01
      outer loop
         vertex 5.426777e+00 9.573223e+00 9.573223e+00
         vertex 9.573223e+00 9.573223e+00 5.426777e+00
         vertex 9.573223e+00 5.426777e+00 9.573223e+00
      endloop
   endfacet
   facet normal -5.773503e-01 5.773503e-01 5.773503e-01
      outer loop
         vertex 9.573223e+00 5.426777e+00 9.573223e+00
         vertex 9.573223e+00 9.573223e+00 5.426777e+00
         vertex 5.426777e+00 5.426777e+00 5.426777e+00
      endloop
   endfacet
   facet normal 5.773503e-01 5.773503e-01 5.773503e-01
      outer loop
         vertex 5.426777e+00 5.426777e+00 4.573223e+00
         vertex 9.573223e+00 5.426777e+00 4.267772e-01
         vertex 5.426777e+00 9.573223e+00 4.267772e-01
      endloop
   endfacet
   facet normal 5.773503e-01 -5.773503e-01 -5.773503e-01
      outer loop
         vertex 5.426777e+00 9.573223e+00 4.267772e-01
         vertex 9.573223e+00 9.573223e+00 4.573223e+00
         vertex 5.426777e+00 5.426777e+00 4.573223e+00
      endloop
   endfacet
   facet normal -5.773503e-01 -5.773503e-01 5.773503e-01
      outer loop
         vertex 9.573223e+00 5.426777e+00 4.267772e-01
         vertex 9.573223e+00 9.573223e+00 4.573223e+00
         vertex 5.426777e+00 9.573223e+00 4.267772e-01
      endloop
   endfacet
   facet normal -5.773503e-01 5.773503e-01 -5.773503e-01
      outer loop
         vertex 5.426777e+00 5.426777e+00 4.573223e+00
         vertex 9.573223e+00 9.573223e+00 4.573223e+00
         vertex 9.573223e+00 5.426777e+00 4.267772e-01
      endloop
   endfacet
   facet normal -5.773503e-01 5.773503e-01 -5.773503e-01
      outer loop
         vertex 4.573223e+00 5.426777e+00 5.426777e+00
         vertex 4.267772e-01 5.426777e+00 9.573223e+00
         vertex 4.573223e+00 9.573223e+00 9.573223e+00
      endloop
   endfacet
   facet normal -5.773503e-01 -5.773503e-01 5.773503e-01
      outer loop
         vertex 4.573223e+00 9.573223e+00 9.573223e+00
         vertex 4.267772e-01 9.573223e+00 5.426777e+00
         vertex 4.573223e+00 5.426777e+00 5.426777e+00
      endloop
   endfacet
   facet normal 5.773503e-01 -5.773503e-01 -5.773503e-01
      outer loop
         vertex 4.267772e-01 5.426777e+00 9.573223e+00
         vertex 4.267772e-01 9.573223e+00 5.426777e+00
         vertex 4.573223e+00 9.573223e+00 9.573223e+00
      endloop
   endfacet
   facet normal 5.773503e-01 5.773503e-01 5.773503e-01
      outer loop
         vertex 4.573223e+00 5.426777e+00 5.426777e+00
         vertex 4.267772e-01 9.573223e+00 5.426777e+00
         vertex 4.267772e-01 5.426777e+00 9.573223e+00
      endloop
   endfacet
   facet normal -5.773503e-01 5.773503e-01 5.773503e-01
      outer loop
         vertex 4.573223e+00 9.573223e+00 4.267772e-01
         vertex 4.267772e-01 5.426777e+00 4.267772e-01
         vertex 4.573223e+00 5.426777e+00 4.573223e+00
      endloop
   endfacet
   facet normal -5.773503e-01 -5.773503e-01 -5.773503e-01
      outer loop
         vertex 4.573223e+00 5.426777e+00 4.573223e+00
         vertex 4.267772e-01 9.573223e+00 4.573223e+00
         vertex 4.573223e+00 9.573223e+00 4.267772e-01
      endloop
   endfacet
   facet normal 5.773503e-01 -5.773503e-01 5.773503e-01
      outer loop
         vertex 4.573223e+00 9.573223e+00 4.267772e-01
         vertex 4.267772e-01 9.573223e+00 4.573223e+00
         vertex 4.267772e-01 5.426777e+00 4.267772e-01
      endloop
   endfacet
   facet normal 5.773503e-01 5.773503e-01 -5.773503e-01
      outer loop
         vertex 4.267772e-01 5.426777e+00 4.267772e-01
         vertex 4.267772e-01 9.573223e+00 4.573223e+00
         vertex 4.573223e+00 5.426777e+00 4.573223e+00
      endloop
   endfacet
endsolid